<svg width="123" height="158" viewBox="0 0 123 158" fill="none" xmlns="http://www.w3.org/2000/svg">
<path opacity="0.4" d="M78.1252 11.7503C78.9698 11.8668 79.2865 11.7504 79.6033 11.8668C98.9234 24.6777 112.015 42.8459 116.977 67.3031C118.244 73.4757 118.032 79.8811 116.554 86.1701C113.493 99.6798 103.252 108.997 90.6886 109.812C84.143 110.278 77.8085 109.463 72.1075 105.503C71.6852 102.126 71.3685 98.7481 70.735 95.6036C69.6793 90.4792 67.251 86.2866 62.9225 83.7244C59.7552 81.7445 56.588 81.7445 54.8988 83.6079C52.6817 86.0537 52.6818 89.3146 54.0542 91.9933C55.9546 95.7201 58.2772 99.214 60.7054 102.475C62.289 104.571 64.4005 106.318 66.3009 108.065C64.5061 121.225 53.2096 126.816 39.6961 121.342C39.2738 119.478 38.8515 117.499 38.3236 115.635C36.2121 108.764 32.3058 103.523 25.9714 101.077C23.5431 100.146 20.9038 99.7963 18.7923 102.242C17.2087 104.105 17.2087 107.366 18.8979 110.627C21.6428 115.752 25.7602 119.362 30.1944 122.507C31.778 123.555 33.3616 124.603 34.9452 125.535C32.8337 145.916 16.2585 160.357 0 152.205C0.105575 153.719 -6.45006e-06 155 0.422292 155.698C0.950165 156.514 2.11149 156.98 3.06166 157.212C12.0355 159.076 20.3759 157.911 27.2382 150.691C32.4114 145.333 35.8954 138.811 38.218 131.358C38.5348 130.31 38.8515 129.261 39.2738 128.213C39.2738 128.097 39.4849 127.98 39.9072 127.631C40.8574 127.747 42.0187 127.747 43.18 127.98C57.327 130.426 64.7172 126.233 71.2629 111.675C72.5298 112.141 74.0078 112.607 75.3803 113.19C83.5095 116.218 91.6388 116.45 99.8736 113.422C113.282 108.531 121.939 95.8365 122.889 79.7647C123.417 71.03 122.044 62.6446 119.194 54.4922C112.226 34.81 100.824 19.3204 83.7207 9.18816C82.8761 8.60585 81.9259 8.14 81.0813 7.55769C80.9757 7.44122 80.8702 7.2083 80.5534 6.50951C84.143 5.5778 87.5214 5.92722 90.8998 6.16014C94.1726 6.2766 97.5509 6.62598 101.14 6.8589C100.824 3.83087 99.3457 2.66624 97.551 1.96747C95.4395 1.26869 93.328 0.33699 91.2165 0.22052C85.5154 -0.0124054 79.7088 -0.12886 73.9022 0.22052C69.3625 0.569916 68.0956 3.24857 70.1015 7.32477C74.4301 15.943 78.8642 24.5613 83.2984 33.1795C84.0374 34.5771 84.9876 35.7417 86.1489 37.3722C88.1548 34.81 87.3102 32.9466 86.5712 31.1997C83.6151 24.9107 80.9757 18.6217 78.1252 11.7503ZM21.9595 105.736C29.2442 106.784 33.7839 111.908 34.1006 119.129C29.2442 115.635 24.5989 112.491 21.9595 105.736ZM57.6438 87.6841C63.8727 89.3146 66.8288 93.9731 66.1953 101.077C62.1835 97.3506 58.6995 93.8567 57.6438 87.6841Z" fill="#0D1927"/>
</svg>
