<svg width="647" height="255" viewBox="0 0 647 255" fill="none" xmlns="http://www.w3.org/2000/svg">
<g clip-path="url(#clip0_244_778)">
<mask id="mask0_244_778" style="mask-type:luminance" maskUnits="userSpaceOnUse" x="0" y="0" width="647" height="255">
<path d="M647 0H0V255H647V0Z" fill="white"/>
</mask>
<g mask="url(#mask0_244_778)">
<path d="M6.40625 0H108.901C130.129 0 147.337 17.1251 147.337 38.25V140.25H44.8419C23.6145 140.25 6.40625 123.125 6.40625 102V0Z" fill="#392994"/>
<path d="M38.4375 114.749V25.4988H74.5087C86.9602 25.4988 96.5251 27.6183 103.205 31.8574C109.885 36.0453 113.225 42.1486 113.225 50.1671C113.225 54.6614 111.996 58.6196 109.538 62.0415C107.133 65.4122 103.659 67.8893 99.1173 69.4726C104.354 70.7494 108.362 73.1755 111.14 76.7508C113.919 80.3256 115.309 84.4625 115.309 89.1616C115.309 97.9965 112.129 104.483 105.769 108.62C99.4105 112.706 90.1661 114.749 78.0351 114.749H38.4375ZM61.6833 77.5935V96.9753H78.0351C82.5244 96.9753 85.998 96.1326 88.4554 94.4478C90.914 92.7109 92.1427 90.4384 92.1427 87.6286C92.1427 81.1427 88.0553 77.7975 79.8788 77.5935H61.6833ZM61.6833 62.6547H75.9511C85.3035 62.6547 89.9791 59.5389 89.9791 53.308C89.9791 49.7329 88.83 47.2048 86.5322 45.7237C84.2879 44.1915 80.841 43.4255 76.1915 43.4255H61.6833V62.6547Z" fill="white"/>
<path d="M339.516 0H442.011C463.238 0 480.446 17.1251 480.446 38.25V140.25H377.952C356.724 140.25 339.516 123.125 339.516 102V0Z" fill="#392994"/>
<path d="M426.315 88.4677C426.315 85.3781 425.016 82.9022 422.419 81.0383C419.822 79.1744 415.397 77.4962 409.144 76.0053C402.89 74.5139 397.616 72.9423 393.324 71.292C389.085 69.5876 385.586 67.5903 382.831 65.3001C380.076 63.0104 378.034 60.3738 376.709 57.3915C375.385 54.3558 374.723 50.7608 374.723 46.6067C374.723 38.6179 378.034 32.0406 384.659 26.8745C391.284 21.7085 399.817 19.1255 410.256 19.1255C421.65 19.1255 430.846 21.7351 437.841 26.9544C444.89 32.1205 448.414 39.2038 448.414 48.2044H425.44C425.44 44.7959 424.062 41.9466 421.307 39.6565C418.603 37.3664 414.947 36.2213 410.336 36.2213C406.255 36.2213 402.943 37.1268 400.4 38.9375C397.855 40.7482 396.584 43.0118 396.584 45.7279C396.584 48.4441 397.909 50.6543 400.558 52.3585C403.208 54.0095 407.607 55.6073 413.755 57.1518C426.103 59.868 434.926 63.6224 440.226 68.4158C445.579 73.2092 448.255 79.6797 448.255 87.8284C448.255 96.1367 444.996 102.714 438.477 107.561C431.959 112.354 423.055 114.75 411.767 114.75C404.082 114.75 397.14 113.499 390.939 110.995C384.739 108.493 379.943 104.924 376.551 100.291C373.212 95.6575 371.543 90.1714 371.543 83.8344H394.596C394.596 88.7867 396.106 92.3556 399.127 94.5391C402.201 96.7226 406.785 97.8149 412.88 97.8149C417.013 97.8149 420.273 96.9622 422.658 95.2584C425.096 93.5535 426.315 91.2905 426.315 88.4677Z" fill="white"/>
<path d="M313.891 0H211.396C190.169 0 172.961 17.1251 172.961 38.25V140.25H275.456C296.683 140.25 313.891 123.125 313.891 102V0Z" fill="#392994"/>
<path d="M260.192 97.7415H226.43L220.292 114.749H198.582L233.093 25.4988H253.455L288.265 114.749H266.405L260.192 97.7415ZM232.269 81.4997H254.203L243.199 51.3162L232.269 81.4997Z" fill="white"/>
<path d="M647.001 0H544.508C523.281 0 506.072 17.1251 506.072 38.25V140.25H608.567C629.793 140.25 647.001 123.125 647.001 102V0Z" fill="#392994"/>
<path d="M614.97 25.4988V82.48C614.97 92.5057 611.593 100.39 604.838 106.133C598.089 111.877 588.691 114.749 576.651 114.749C564.664 114.749 555.241 111.877 548.384 106.133C541.526 100.39 538.098 92.5306 538.098 82.5553V25.4988H560.869V83.6133C561.183 92.6818 566.443 97.216 576.651 97.216C581.729 97.216 585.576 96.0828 588.193 93.8151C590.864 91.5485 592.199 87.8202 592.199 82.6306V25.4988H614.97Z" fill="white"/>
<path d="M627.78 165.75H19.2178C8.60409 165.75 0 174.313 0 184.875V235.875C0 246.437 8.60409 255 19.2178 255H627.78C638.393 255 647 246.437 647 235.875V184.875C647 174.313 638.393 165.75 627.78 165.75Z" fill="#E96627"/>
<path d="M76.3053 219.432C75.8097 224.981 73.62 229.31 69.7368 232.419C65.8833 235.498 60.7892 237.038 54.454 237.038C47.5643 237.038 42.1051 234.859 38.0764 230.501C34.0476 226.143 32.0332 220.086 32.0332 212.328V209.365C32.0332 204.455 32.9528 200.155 34.792 196.466C36.6312 192.747 39.2733 189.885 42.7181 187.881C46.163 185.876 50.1626 184.874 54.7168 184.874C60.9643 184.874 65.9854 186.457 69.7807 189.624C73.5755 192.791 75.7652 197.192 76.3493 202.828H65.7082C65.3574 199.575 64.2628 197.192 62.4239 195.682C60.6141 194.142 58.0449 193.372 54.7168 193.372C46.6885 193.372 42.6743 198.746 42.6743 209.496V212.634C42.6743 218.008 43.6523 222.018 45.6083 224.661C47.5643 227.277 50.5129 228.583 54.454 228.583C57.9573 228.583 60.6141 227.872 62.4239 226.448C64.2337 225.025 65.3289 222.686 65.7082 219.432H76.3053Z" fill="white"/>
<path d="M137.606 227.887H161.91V236.341H126.965V185.572H137.606V227.887Z" fill="white"/>
<path d="M242.74 225.49H221.633L217.472 236.341H206.744L227.369 185.572H237.135L257.673 236.341H246.9L242.74 225.49ZM224.741 217.428H239.631L232.186 198.166L224.741 217.428Z" fill="white"/>
<path d="M334.609 223.005C334.609 221.089 333.85 219.563 332.332 218.43C330.814 217.268 327.822 216.134 323.355 215.031C318.918 213.927 315.414 212.662 312.845 211.239C310.276 209.815 308.379 208.16 307.153 206.271C305.955 204.354 305.357 202.058 305.357 199.386C305.357 195.144 307.153 191.672 310.743 188.97C314.334 186.24 318.976 184.874 324.669 184.874C330.8 184.874 335.719 186.327 339.426 189.232C343.134 192.137 344.987 195.914 344.987 200.562H334.346C334.346 198.209 333.471 196.364 331.719 195.028C329.967 193.662 327.617 192.98 324.669 192.98C321.895 192.98 319.706 193.546 318.1 194.679C316.494 195.784 315.692 197.265 315.692 199.125C315.692 200.809 316.509 202.204 318.144 203.308C319.808 204.412 322.728 205.472 326.902 206.489C333.354 208.058 337.981 210.135 340.784 212.721C343.587 215.307 344.987 218.662 344.987 222.788C344.987 227.232 343.178 230.719 339.558 233.247C335.938 235.774 331.15 237.038 325.194 237.038C321.166 237.038 317.473 236.37 314.115 235.033C310.787 233.668 308.203 231.75 306.364 229.281C304.525 226.812 303.605 223.936 303.605 220.652H314.29C314.29 226.231 318.028 229.02 325.501 229.02C328.333 229.02 330.551 228.482 332.157 227.407C333.792 226.333 334.609 224.865 334.609 223.005Z" fill="white"/>
<path d="M424.504 223.005C424.504 221.089 423.745 219.563 422.227 218.43C420.708 217.268 417.716 216.134 413.25 215.031C408.812 213.927 405.309 212.662 402.74 211.239C400.171 209.815 398.273 208.16 397.047 206.271C395.85 204.354 395.252 202.058 395.252 199.386C395.252 195.144 397.047 191.672 400.638 188.97C404.228 186.24 408.87 184.874 414.563 184.874C420.694 184.874 425.613 186.327 429.321 189.232C433.028 192.137 434.882 195.914 434.882 200.562H424.241C424.241 198.209 423.365 196.364 421.614 195.028C419.862 193.662 417.512 192.98 414.563 192.98C411.79 192.98 409.6 193.546 407.995 194.679C406.389 195.784 405.586 197.265 405.586 199.125C405.586 200.809 406.403 202.204 408.038 203.308C409.702 204.412 412.622 205.472 416.796 206.489C423.248 208.058 427.875 210.135 430.678 212.721C433.48 215.307 434.882 218.662 434.882 222.788C434.882 227.232 433.072 230.719 429.452 233.247C425.832 235.774 421.044 237.038 415.088 237.038C411.06 237.038 407.367 236.37 404.009 235.033C400.682 233.668 398.098 231.75 396.259 229.281C394.419 226.812 393.5 223.936 393.5 220.652H404.185C404.185 226.231 407.922 229.02 415.395 229.02C418.227 229.02 420.446 228.482 422.051 227.407C423.686 226.333 424.504 224.865 424.504 223.005Z" fill="white"/>
<path d="M518.478 214.377H496.494V227.887H522.243V236.341H485.854V185.572H522.112V194.113H496.494V205.879H518.478V214.377Z" fill="white"/>
<path d="M600.624 223.005C600.624 221.089 599.865 219.563 598.345 218.43C596.831 217.268 593.84 216.134 589.371 215.031C584.933 213.927 581.43 212.662 578.861 211.239C576.292 209.815 574.395 208.16 573.168 206.271C571.971 204.354 571.373 202.058 571.373 199.386C571.373 195.144 573.168 191.672 576.759 188.97C580.349 186.24 584.992 184.874 590.684 184.874C596.813 184.874 601.734 186.327 605.444 189.232C609.148 192.137 611.006 195.914 611.006 200.562H600.363C600.363 198.209 599.485 196.364 597.734 195.028C595.982 193.662 593.632 192.98 590.684 192.98C587.911 192.98 585.721 193.546 584.116 194.679C582.51 195.784 581.708 197.265 581.708 199.125C581.708 200.809 582.525 202.204 584.16 203.308C585.823 204.412 588.743 205.472 592.918 206.489C599.372 208.058 603.996 210.135 606.797 212.721C609.605 215.307 611.006 218.662 611.006 222.788C611.006 227.232 609.196 230.719 605.575 233.247C601.954 235.774 597.164 237.038 591.21 237.038C587.182 237.038 583.488 236.37 580.131 235.033C576.803 233.668 574.219 231.75 572.38 229.281C570.541 226.812 569.621 223.936 569.621 220.652H580.306C580.306 226.231 584.043 229.02 591.516 229.02C594.35 229.02 596.564 228.482 598.173 227.407C599.805 226.333 600.624 224.865 600.624 223.005Z" fill="white"/>
</g>
</g>
<defs>
<clipPath id="clip0_244_778">
<rect width="647" height="255" fill="white"/>
</clipPath>
</defs>
</svg>
